<svg version="1" xmlns="http://www.w3.org/2000/svg" width="1365.333" height="1365.333" viewBox="0 0 1024.000000 1024.000000"><path d="M478.4 45.8c.7 10.5 2.2 17.6 6.8 30.5 1.7 4.8 2.9 9 2.6 9.2-.3.3-2 0-3.8-.6-2-.8-7-1-13.4-.6-8.4.4-12.5 1.3-24.1 5-18.5 6-22.6 7.1-38.5 10.3-11.8 2.4-15.9 2.8-32.5 2.8-18.3.1-19.3 0-27-2.7-7.8-2.8-13.2-6.1-16.7-10.2-1.7-2-1.7-2-1.8 0-.1 3.5 7 24.8 10.9 32.7l3.8 7.8h-9.3c-11.1 0-15.5.8-33.9 6.5-19.1 5.9-32.8 9.1-47 11.1-27.5 3.8-47.8-1.2-55.7-13.5l-2.8-4.5v5.6c0 6.7 2.4 21.2 4.6 27.1.8 2.3 2.4 7.3 3.5 11 2.3 8 5.7 15.2 9.4 19.5l2.5 3-5.7 3.2c-3.3 1.9-11.9 9.2-20.9 17.9-17.9 17.4-29.9 25.9-41.6 29.6-9.1 2.9-18.1 3.2-25.4 1-2.7-.8-5.1-1.5-5.3-1.5-.3 0 .6 1.1 1.9 2.5 6 6.4 17.9 11.6 30.1 13.3 6.4.9 6.4.9 3.4 2.2-4.3 1.8-12.4 1.7-24.6-.3-12.9-2.1-32.9-2.2-42.1-.2-15.4 3.2-27.9 12.4-33.6 24.6-1.6 3.5-3.3 7.9-3.7 9.8l-.7 3.5 4.3-3.8C56.3 294 67.5 288 70 288c.7 0-1.4 2.8-4.6 6.2-5.7 6.3-9.8 13.5-11 19.7l-.7 3.3 4.9-3.5c6.5-4.6 12.3-7.4 17.6-8.6 9.3-2.1 15.1 2.1 20.8 14.9 8 18.1 15.5 29.4 25.9 39.3l7.1 6.7h-3.9c-11.7 0-30.8-6.7-39.1-13.6-1.7-1.5-3.3-2.5-3.5-2.2-1.7 1.7 9.7 38.1 15.7 50.2 12.1 24.4 29.9 39.5 51.9 44.2l7.8 1.7-4 7.1c-6.7 11.7-13.9 27.4-17.7 38.6l-3.6 10.5v18c0 21.6 1.3 28.7 11.1 59.4 10.3 32.1 22.5 59.2 38.8 86.1 7 11.6 19.6 30 20.5 30 .3 0 1.4-6.2 2.4-13.8 2.1-15.6 3.4-20.4 3.5-12.8.1 6.3 2.7 23.1 5.1 32.6 1.1 4.1 4.9 16.2 8.4 26.7 13.5 39.8 32.1 69.8 61.6 99.4 12.7 12.8 29.5 26.7 30.7 25.6.3-.3-.7-4.1-2.1-8.4-5.6-17-9.8-39.9-11.6-63.3-1.3-16.9-1.3-20 0-20 .6 0 1 1.3 1 3 0 4.5 3.8 26.8 6 35.7 4.2 16.1 14.3 45.2 19.4 55.4 7 14 12.3 21.7 21.5 31.2 30.4 31.4 105.8 64.4 202.6 88.6 21.8 5.4 59.4 12.1 68.4 12.1 3.4 0 3.2-.2-5.3-6-9.5-6.4-16.9-12.1-16.4-12.5.2-.1 4.2.1 9.1.4 4.8.3 8.7.3 8.7 0 0-.4-1.9-1.8-4.2-3.2-12.9-7.6-30.7-22.4-48.8-40.6-21.1-21.2-35.2-40.1-46.5-62.3-8.1-15.7-10.3-22.2-13-38.7-7.9-47.5-8.7-75-2.8-93.6 5.7-18.1 18-30.8 38.8-40.2 8.1-3.7 21.2-8.3 23.7-8.3 1.4 0 6.4 11.3 9.9 22.5 6 19.2 13.7 51.9 12.8 54.2-1.7 4.5-3.9 20-3.9 27.5 0 8.6 2.1 21.2 4.3 25.5.8 1.5 2.2 5.7 3.1 9.3 2.3 8.9 7.7 18 13.9 23.5 11.1 9.8 28.5 15.3 45.1 14.2 7.1-.5 8.5-.3 12.8 1.9 10.2 5.2 21.9 6.7 29.9 3.9 9.3-3.3 13.4-10.7 13.3-24.2V833l2.8 5.3c1.6 2.8 3.7 5.9 4.7 6.7 1.1.8 2.8 3.3 3.9 5.5 5.8 11.5 20.2 18 38.2 17.4 7.3-.3 9.1 0 12.9 2 3.7 1.9 5.6 2.2 11.5 1.9 8.9-.4 16.3-3.8 23.5-10.8 2.9-2.8 5.7-5 6.4-5 2.2 0 13.8-5.9 19.7-10.1 9.2-6.4 18.4-19 21.5-29.3.9-3.2 1.8-4.1 5.1-5.2 2.1-.7 4.9-2.6 6.1-4.1 7.9-9.8 10.8-64.3 4.3-81.6-1.1-3-3-8.8-4.1-12.9-2.4-8.7-6.5-15.5-12.5-20.6-4.1-3.5-4.7-4.7-9.8-19.7-15.4-45.7-36.5-96.8-47.8-116.1l-3.5-6 2.3-2.9c1.2-1.6 3-5.7 4-9.2 2.9-10.8.6-35.3-5.1-54.7-.8-2.7-1.5-5.3-1.5-5.6 0-.4 3.1-1 6.8-1.3 22.9-2.2 49.9-13.6 72.5-30.6 9.4-7 24.4-21.7 23.4-22.7-.3-.3-3.4.3-6.9 1.4-7.3 2.4-18.1 4.6-19.8 4-.6-.2 1.8-2.7 5.4-5.6 5.8-4.7 16.6-16.1 16.6-17.5 0-.3-2.4.4-5.2 1.5-7 2.6-17.7 4.4-31.5 5.3-12.3.8-13.7.2-7.8-3.5 4.7-2.9 15.3-14.6 19.4-21.4 9.9-16.6 13-38.7 8.9-63.6-.9-5.8-2.8-10.5-2.8-7.1 0 .7-.4 1-.9.7-.4-.3-1.2-3.8-1.5-7.7-.4-3.9-1.1-8-1.5-9.1-.6-1.8-1-1.5-3.6 2.2-5.4 7.8-27.7 26-31.8 26-.8 0-1.1-2.1-.9-6.7.6-10.2-.5-14.3-11.4-46.3-.3-1 7.2-8.3 23.2-22.5 13-11.6 24.2-21.5 24.8-22 5.1-4.7 30.3-26.9 39-34.5 40-34.7 59.3-55.7 69.2-75.5 5.5-11 6.4-16 3.6-19.5-1.9-2.4-2.2-2.4-6.8-1.2-7.6 2-21.6 9.1-39 19.7-13.6 8.4-70.4 46.1-105.4 70-30.5 20.8-44.9 30.5-45.3 30.5-1.3 0-10.9-16.5-15.8-26.9-4.2-9.1-5-13.8-5-29.1v-13.5l-2 2.7c-3.6 4.9-4.2 3.6-3.7-8.2l.5-11-3 2.7C737.1 149.8 728 172 728 190.8v6.7l-16.2-16.3c-9-9-18.4-19.1-21-22.5-7.6-10.1-8.1-12-8.2-29.7 0-16.9 2.2-31.1 6.8-44.8 1.4-4 2.3-7.2 2-7.2-.3 0-3 1.6-6 3.5s-5.6 3.5-5.8 3.5c-.7 0 1.4-8.2 4-15.9 1.4-4 2.3-7.5 2.1-7.8-1-1-16.9 10.9-23.4 17.4-10.6 10.8-17.9 22.7-22.7 37l-2.2 6.6-3.4-5.9c-4.7-8.4-15.9-19.2-24.7-23.7-11.1-5.8-16.3-7.2-48.2-13.7-35.5-7.1-44.7-9.6-56.8-15.5-10.9-5.4-19.6-12.9-23.7-20.6l-2.8-5.4.6 9.3zm18.7 24.7c12.6 7.7 23.2 10.8 41.9 12 24.8 1.6 50.4 9.5 67 20.8 6.7 4.6 16.7 14.5 21 20.7 7 10.4 7.2 11 7.1 24.9-.2 12.8 1.6 29 4.4 39.3 3.5 13.5 11.5 30.3 16.7 35.3l2.1 2-.8-2c-3-7.5-8.7-25.6-9.9-31.8-6.7-32.5-3.5-65.5 8.9-90.2 4.7-9.4 14.2-21.4 13.1-16.5-1.5 6.2-1.8 27.2-.6 36.6 3.6 28.9 15 50 38.9 72.3 19.1 17.8 21.9 20.7 26.8 28.3 4.3 6.7 9.3 18.4 9.2 21.8 0 .8-1.6 2.6-3.7 4-24.6 17-32.2 22-32.9 22-1-.1-8-11.3-11.8-18.9-5.7-11.3-9.1-26.8-7.9-35.5l.6-4.9-2.9 2.1c-4.4 3.1-10.9 10.4-15.3 17.4-7.7 11.8-10 26.2-6.1 37 4.7 12.9 6 32.6 2.8 44.1-2.5 9.4-8 15.7-13.6 15.7-2.9 0-2.6 1.8.4 2.6 6.8 1.7 20.7-5.5 25-13 3.8-6.8 3.9-9.3.5-26.6-4.1-21.2-5.1-30.7-4-37.5.9-5.5 3.6-12.5 4.9-12.5.4 0 1.3 2.4 2 5.2 3.8 15.1 16 39.8 24.2 49.1 2.3 2.7 6.9 6.6 10.1 8.9 8.8 5.9 13.7 11.4 17.4 19.4 6.8 14.5 6.3 34.5-1.4 59.1-1.1 3.5-1.6 6.3-1.2 6.3.9 0 7.6-10.3 11-17 4.6-9 8.2-21.3 8.8-29.9l.5-8.3 18.5-16.7c10.3-9.1 22.4-20.1 27.1-24.3 4.8-4.3 8.9-7.8 9.3-7.8 1.1 0 3.8 13.7 3.8 19.7 0 7.4-2.3 17.2-5.6 23.7-3.8 7.6-5 8.6-8.7 7.5-3.9-1.1-4.5-.5-2.2 2.1 2.3 2.5 10.4 5 16.4 5 12.4-.1 29.6-7.3 41-17.3 3.2-2.8 3.5-2.8 4.2-1.1 2 5.1-.2 21.4-4.2 31.6-4.5 11.5-13.5 21.9-25.7 29.9-15.5 10.1-36.3 15.6-66.1 17.5-12.7.8-12.5 1.4 1.3 3.9 4.5.7 10.1 2.5 12.7 3.9 10.4 5.8 25.5 9.4 44.7 10.5 13.7.8 35.9-.1 43.7-1.9 2.6-.6 4.9-.9 5.1-.7.8.7-19.9 13.5-29.9 18.5-43.6 21.6-93 20.1-128.4-3.9-19.1-12.9-39.4-42.6-70.8-103.4-15.5-30-17.8-34.2-24-43.5-3.5-5.2-9.7-13.1-13.8-17.5l-7.3-8 .4-15c.4-16.1-.7-27.7-5.3-53.5-1.4-8-3.5-19.7-4.6-26-2.8-15.8-3.5-34.6-1.7-43.3.8-3.7 1.1-6.7.8-6.7-1.4 0-15.6 9.9-21.5 14.9-3.2 2.8-6.3 5.1-6.7 5.1-.5 0-3.6-2.2-7.1-4.9-3.4-2.6-10.7-7.6-16.2-11.1-5.5-3.4-12.2-8.1-14.9-10.3-9.6-8-19.2-23.3-23.5-37.5-1-3.4-1.8-6.2-1.6-6.2.2 0 3.6 2 7.6 4.5zM478.8 97c9.6 1.3 18.3 5.9 26.6 13.9 3.9 3.8 14.6 11.9 23.8 18.1 9.2 6.1 17 11.6 17.4 12.1.3.5-3.4 4.8-8.1 9.6-15 14.9-21.1 22.7-26.9 34.7-5.3 10.9-9.9 24.1-11.2 32.2l-.6 4.1-15.7.6C439 224 395.2 235 356 254.4c-17.8 8.9-28.5 15.4-49.9 30.3-51.5 35.9-88.7 72.9-120.4 119.4-8 11.7-8.9 12.7-12.4 13.3-20.2 3.3-43.5-5.4-59.4-22.1-5.5-5.7-14.3-17.2-16.5-21.5-1.6-3.1-1.6-3.1.8-2.4 9.3 2.7 17.6 3.8 28.8 3.8 17.6 0 32-3.4 43.8-10.6 3.9-2.3 8-3.8 13-4.6 3.9-.6 7.2-1.5 7.2-1.9 0-.4-5.4-1.5-12-2.4-16.4-2.4-26.1-5.1-35.5-9.7-15.2-7.4-23.9-16.7-31-33-6.1-14-14.4-25.7-21.3-30.1l-4.7-3 4 .7c2.2.3 4.3.8 4.7 1.1.5.2 1.6.6 2.6.8 2.4.4 10.3 4.1 17.5 8.2 7 3.9 11.1 4.2 13.7 1 1.7-2 1.9-2 2.5-.5.4 1 1.1 1.6 1.5 1.3.9-.6 12.1-3 22.5-4.9l7-1.3-4.5-1.2c-12.7-3.4-5.8-2.3 18.2 2.9 15.7 3.4 20.4 4 30 4 15.6 0 26.8-3.3 33.4-9.8l2.7-2.7-.7 4.2c-.7 4.6.1 5.4 2.7 2.5 3-3.3 4.9-9.5 5-16.5.1-5.5.3-6.4 1-4.4.7 2.2 1.2 2.5 2.7 1.7 1-.6 2.7-1 3.7-1 4 0 4.7-1.4 2.8-6.3-.9-2.5-1.5-5.1-1.3-5.9.6-1.6 4.6 4.6 5.5 8.4.6 3.1.6 3.1 3.1 1.9 3-1.5 10.2-2.9 10.8-2 .9 1.5 3.4 1 2.8-.6-.5-1.1.7-1.5 6-1.7l6.6-.3-3.5-7.8c-7-16.2-21.3-35.5-29.1-39.2-9-4.2-25.1 1.2-74.6 25.3-2.2 1 24.5-24 28.2-26.5 14.6-9.9 31-15.2 53.4-17.3 9.6-1 10-.9 17.3 2 9 3.6 15.1 7.7 21.5 14.4 4.5 4.7 4.8 4.9 4.8 2.5 0-7.7-11.9-22.3-22.6-27.7-8.1-4.1-13.1-5.3-24.9-6.2l-10-.7 7.6-.2c4.1 0 10 .3 13 .8 3.1.6 8 .6 11.4.2 3.7-.5 4.8-.9 2.8-1-5.1-.2-3.9-1.8 2.3-3.1 5.4-1.1 11.6-.4 19.9 2.4 1.5.5 1.4.4-.2-.5-2.7-1.4-3-2.9-.6-2.9.9 0 1.4-.2 1.2-.4-1.1-1.1-36.6-3.9-57.9-4.5-26.3-.9-30.4-1.7-39.4-8.8-5.8-4.5-5.9-5.8-.3-3.4 13.1 5.6 32.5 5.4 53.7-.6 3-.8 12.9-3.7 22-6.5 9.1-2.7 21.7-5.8 28-6.9 22.1-3.9 49.8-2.1 63.9 4.1 9.2 4 21.8 7.5 33.6 9.3 12.7 2 24.1 2.9 22.9 1.8-.5-.4-6.1-2-12.4-3.5-18.6-4.5-30.8-9-43.2-16.3-10.6-6.2-23.6-16.7-28.8-23.3l-3-3.8 7.2 1.9c16.1 4.1 38.5 1.4 66.3-8.1 23.1-7.9 39.7-10.3 55.3-8zM965 112.8c0 2.3-1.8 4.8-10.8 15.4-8.7 10.2-11.7 11.7-20.6 9.8-5-1-9.7-3.3-8.6-4.2 3.9-3.2 29.5-18.7 34.5-20.9 5-2.3 5.5-2.3 5.5-.1zm-33 32.5l5 1.3-9.4 9.3-9.4 9.4-6.8.4c-3.8.3-8.8 0-11-.6-4.7-1.3-9.4-4.6-9.4-6.6 0-.8 5.9-5.4 13.1-10.4l13.1-9 4.9 2.5c2.7 1.3 7.2 3 9.9 3.7zm-368.3 14.4c-1 26.7-3.6 68-4.8 75.3-2.1 14-9.2 22.6-22.8 27.9-5.4 2.1-6.9 3.1-5.1 3.2 14.5 1 27.6-6.4 34-19.5 3.8-7.8 5-15.2 5-33.1 0-15.3 1.9-39.5 3-39.5s4.7 19.9 6.5 35.5c1.6 13.7 2.1 38.5 1 45.1-2 11-11.1 23.2-23.2 30.9-10.6 6.9-10.4 6.6-4.8 6.1 8.9-.8 18.7-5.2 25.6-11.4l6.2-5.6 5.4 5.9c22.7 25.2 46 61.1 57.2 88 6 14.5 9.7 22 15.2 31 19.2 31.5 51.8 50.8 101.5 60.1 2.6.5 6 8.3 9.5 21.9 3.1 12.3 3.1 23.1 0 30.3-3.8 8.4-5 8.4-11.9 0-8.9-10.8-13.7-14.8-8.2-6.8 4.3 6.2 13.9 23.8 21.9 39.9 22.1 45 39.6 91.7 49.6 132L827 687l-2.1 6.2c-1.1 3.4-2.3 8.4-2.6 11.2l-.6 5.1 2.5-3.5c1.3-1.9 4-4.4 6-5.4 3.2-1.8 4-1.9 7.9-.7 6.1 1.8 11.4 7.6 13.6 14.9 1.5 4.7 1.8 9.3 1.8 26.2-.1 21.3-1.9 35.8-5.1 40.7-2.6 4.1-6.7 2.8-14.3-4.4-1.9-1.8-3.7-3.1-3.9-2.9-.9 1 2.4 12.2 4.5 15.4l2.4 3.5-2.6 5.2c-6.9 14.2-30.9 28.5-47.6 28.5-7.7 0-13.6-2.1-22.6-8.1-6.4-4.2-7.3-4.6-6.8-2.6 1.1 3.6 7.4 12.4 11.8 16.3 2.2 2 7.1 5.1 10.9 6.9l7 3.2-4.1 1.7c-5 2-12 2.1-16.4.2-1.8-.7-5.2-3.5-7.6-6.2-4.4-5.1-7-10-21.5-41.5-9.4-20.5-19.8-40.4-25.6-48.9-10.2-14.9-25.5-23.9-44.3-26.3-16.2-2-27.7 1.3-36.8 10.6-13.6 13.8-11.4 38.3 6.1 67.1 8.2 13.7 14.2 17.7 27.5 18.4 8.5.4 12.2-.9 6.2-2.3l-3.2-.7 4.2-1.5c2.3-.8 5.6-3 7.3-5 3.7-4.2 4.5-3.8 8.4 4.3 6.9 14-.8 26.4-16.1 26.4-9.8-.1-21.2-6.7-32.9-19.3-7.8-8.3-11.5-14.6-15.6-26.2l-2.9-8 .5 6c.8 9.7 6.7 26.5 11.8 33.7 2.9 4.1 1.6 5.1-5.6 4.3-21.2-2.3-30.6-18.6-30.6-53.5 0-18.4 2.8-33 9.6-49.4 1.3-3.3-1.1-1-5.2 4.9l-3.8 5.6-4.2-16.8c-11.1-43.9-26.6-73.8-50.9-97.8-17.3-17.1-33.4-25.7-64-34-21.3-5.8-30.3-8.9-39-13.3-23.2-12-42.3-40.1-48.1-70.9-2.4-13.1-1.5-38.2 2-51.8 4.5-17.7 14.6-41.9 24.1-57.5 1.9-3.2 3.5-6.1 3.5-6.6 0-.4-2.1 1.2-4.6 3.6-5.3 5.3-13.6 17.4-18.8 27.9-2.1 4-3.9 7.1-4.1 7-.1-.2.1-5.8.5-12.4.5-6.6.9-15.2.8-19v-7l-3.5 10.5c-4.8 14.5-6.4 24.2-6.7 40.5-.2 10.1-1 18.1-3.1 29-3.5 19-4 44.6-1.2 58.8 8.1 40.5 28.2 56.7 92.7 74.9 8 2.2 17.7 5.2 21.5 6.5 12.6 4.5 31.5 18.2 47.9 34.7l9.8 9.9-10.3 3.1c-5.7 1.8-14.7 5.4-19.9 8.1-12.9 6.8-26.7 20.3-32.1 31.5-8.3 17-10.5 31-9.6 61.5 2 69.4 27.4 133.8 69.5 176.2 5.9 5.9 13.1 12.6 15.9 14.7 2.9 2.2 5.1 4.1 4.9 4.3-.2.2-6.1-1-13.2-2.7-50.4-12-108.2-32.8-145.9-52.5-45.5-23.7-72.7-47-85.9-73.2-4.7-9.4-11.3-36.2-13.6-55.3-.5-4.7-1.4-16.2-2-25.7-1.6-27.3 1.4-69.8 7-97.5 1.6-7.8 2.7-14.4 2.5-14.6-.7-.7-5.8 8.2-10.6 18.3-18.7 39.9-26.3 85.3-21.5 129.4.9 8.5 2 15.9 2.4 16.5 1.6 2.7-9.2-6.8-18.8-16.4-34.7-34.6-51.5-77.4-48-122.7 1.1-14.4 5.9-41 10-55.8 10.1-36.4 26.8-71.4 41.7-87.5 3-3.3 5.1-6 4.5-6-1.6 0-15.2 10.7-22.6 17.9-32.6 31.6-55.4 74.7-59.8 113.3l-1.1 9.8-3.2-4.9c-13.9-21-27-46.1-33.5-64-11.7-32.4-13.6-59.7-5.8-84.1 2.9-9 19-40.7 30.1-59.1C219.8 373.7 260.5 327.6 303 299c4.8-3.2 14.9-9.4 22.6-13.8 53.2-30.3 84.8-43.4 117.8-48.7 13.4-2.2 42.3-2.1 53.2 0 1.8.4 2.2 1.4 2.7 7.6.8 9.4 4.6 17.4 9.3 19.7 5.2 2.4 5.9.9 3.5-8.3-2.7-10.2-2.8-22.6-.1-32.6 5.9-22.6 24.1-53.1 43.3-72.7 4.5-4.5 8.3-8.2 8.6-8.2.2 0 .1 8-.2 17.7zm328.2 10.8c3 1.5 7.8 2.9 10.7 3.2 3 .3 5.4.9 5.4 1.4 0 .4-3.9 4.3-8.6 8.8-7.1 6.5-9.6 8.2-13.7 9.2-5.2 1.2-13.6.8-20.1-1.1-4.3-1.3-9.6-5.9-9.6-8.3 0-.9 5.7-5.6 12.7-10.6l12.6-9 2.6 1.8c1.4 1 5 3.1 8 4.6zM746.1 178c3.6 14.1 10.4 29.7 18.6 42.4 2.4 3.8 4.1 7.2 3.6 7.6-4.5 3.8-14.7 10-15.3 9.4-1.2-1.3-7.8-22.3-10.5-33.8-2.9-11.9-3.2-23.1-.9-30 .9-2.6 1.8-4.5 2-4.3.2.2 1.4 4.1 2.5 8.7zm-496.3-.3c-1 .2-2.6.2-3.5 0-1-.3-.2-.5 1.7-.5s2.7.2 1.8.5zM852.1 195c6.8 4.4 17 8 22.8 8l3.6.1-9.3 8.9c-7.9 7.6-10.3 9.3-15 10.6-15.3 4.5-36.3-3.4-33.9-12.7.7-2.4 21.8-18.8 24.4-18.9.7 0 4 1.8 7.4 4zm-38.9 26.3c7.2 5.2 18.1 9.8 24.5 10.4 3.2.3 6.4.9 7.1 1.3.9.4-1.3 2.9-6.7 7.7-7.3 6.5-8.4 7.1-14.6 8.3-11.5 2.2-27-1.4-33.2-7.6-5.6-5.5-4.8-7.3 6.8-15.9 5.5-4.1 10.3-7.5 10.7-7.5.4 0 2.8 1.5 5.4 3.3zm-553.1 3.5c4.5 2.9 11.6 10.8 10.6 11.8-.3.3-2.7-1.1-5.4-3.2-2.6-2-7.5-5-10.8-6.5-5.8-2.6-5.9-2.8-3.5-3.8 3.7-1.5 4.2-1.4 9.1 1.7zm-63.2 13.6c-.2.2-2.7 1.5-5.6 3-3.6 1.8-5.1 2.1-4.7 1.2.6-1.5 6.7-4.5 9.3-4.5.8-.1 1.2.1 1 .3zm585.1 6.1c10.5 7.1 21.9 11.4 30.1 11.5 1.9 0 4.3.6 5.2 1.2 1.4 1.2.8 2-5.3 7.3-7.9 6.7-12.5 8.5-23 8.5-10.9 0-25.5-5-29-10-3.9-5.5-2.9-7.8 6.8-15.2 4.8-3.7 9-6.7 9.3-6.7.4-.1 3 1.5 5.9 3.4zm-19.5 28.8c7.2 3.6 14 5.7 18.3 5.7 4.2 0 11.2 1.7 11.2 2.8 0 2.1-10.8 9.7-16.3 11.5-16.7 5.3-42.3-.5-47.2-10.9-2-4.3-2.3-4 9.9-13.2l8-6 5.5 3.8c3.1 2.1 7.9 5 10.6 6.3zm-532 .8c2.2.8 3.9 1.8 3.9 2.4 0 .5-2.3 2.1-5 3.5-4.1 2-6.3 2.4-13.9 2.4-9.6.1-29-4-26.4-5.4 1.8-1 18.5-4.9 22.4-5.2 4.5-.4 14.5.8 19 2.3zm-79.8 8.5c-.3.3-1.2.4-1.9.1-.8-.3-.5-.6.6-.6 1.1-.1 1.7.2 1.3.5zM752.2 302c9.1.9 13.3 2.4 12.2 4.1-.8 1.4-15.6 13.9-16.3 13.9-.3 0-1.5-2-2.5-4.3-1.1-2.3-6.3-8.7-11.7-14.2l-9.9-10.1 9.8 4.8c8.1 4 11.1 5 18.4 5.8zm-84.1 435.7c8.2 8.6 8.8 12.1 3.2 17.6-2 2-4.2 3.7-5 3.7-.7 0-4.6-1.6-8.6-3.6-6.8-3.4-9.4-6-12.5-12.5-.5-1 8-6.2 12.3-7.5 6-1.9 6.8-1.7 10.6 2.3zM644 749.6c0 .6-1.8 3-4 5.3s-4 4-4 3.7c0-1 4.2-10.1 5.2-11.4.9-1.1 1.3-1.1 1.9 0 .5.7.9 1.8.9 2.4zm62.3 7.6c3.4 5.3 12.2 24.6 11.4 25.4-.8.9-9.7 1.6-12.1 1-2.7-.7-4.1-3.9-5.2-12.3-.8-6.1.4-20.5 1.6-19.8.4.3 2.4 2.9 4.3 5.7zm-47.5 8.4c6.4 3.7 13.2 7.7 15 9.1 2.8 2.1 3.1 2.7 2.1 4.6-1.7 3.3-6 7.7-9.2 9.3-1.6.9-7.1 1.8-12.7 2.1-11.8.7-12.8.2-16-8.4-2.3-6.3-2.5-11.1-.6-15.7 1.4-3.4 5.9-7.6 8.2-7.6.8 0 6.7 3 13.2 6.6zm28.1-1.1c5.2 5.6 5.4 8.5.8 8.5-2.6 0-4.5-1.1-9.1-5.5-5.6-5.3-5.7-5.5-3.4-6.4 4.9-2 7.4-1.3 11.7 3.4zm7.4 16.3c1.5.6 1.1 1.3-2.5 4.9-7.4 7.1-14.3 9.8-18.1 7-1.6-1.1-1.1-1.7 4-5.7 9-7.1 11.6-8.1 16.6-6.2zm25.2 8.8c1.4.4 4 4.7 9 15.1 3.9 8 7.1 14.9 7.3 15.3.5 1.4-5.9 3-11.9 3-5.4 0-5.9-.2-8.8-3.7-6.8-8.2-12.1-23.5-10.1-28.9 1-2.6 1.2-2.6 6.7-2 3.2.4 6.6.9 7.8 1.2zm-51.3 8c1.2 1.4 3.2 3 4.7 3.5l2.6 1-3.7 3.5c-6.6 6-14.6 3.9-21.6-5.5l-2.1-2.8h6.2c3.4 0 7.1-.5 8.2-1.1 2.9-1.6 3.5-1.5 5.7 1.4zm35.4 27.3c.4 2.2.2 2.1-1.4-.9-1.1-1.9-2.2-5.1-2.6-7-.6-3.4-.6-3.4 1.4.9 1.1 2.4 2.3 5.5 2.6 7zm37 3.9c.5.4 2.9 3.5 5.2 6.9l4.2 6.3h-5.8c-7.5 0-14.7-3.5-19.6-9.5l-3.7-4.4h9.3c5.1 0 9.8.3 10.4.7z"/><path d="M302 161c-6.3 1.1-13 3-13 3.7 0 .8 13.3-.5 19.8-2 9.7-2.2 4.2-3.6-6.8-1.7zM351 161c-2.1.7-2.2.8-.5.9 2.6.1 19.6 4.5 25.4 6.6 2.5.8 4.7 1.1 5 .7.3-.5 2.9-1.4 5.6-1.9l5-.9-7-2.3c-11.6-3.7-27.2-5.1-33.5-3.1zM313.3 174.7c.9.2 2.5.2 3.5 0 .9-.3.1-.5-1.8-.5-1.9 0-2.7.2-1.7.5zM321.3 175.7c.9.2 2.3.2 3 0 .6-.3-.1-.5-1.8-.5-1.6 0-2.2.2-1.2.5zM326.8 176.7c.6.2 1.8.2 2.5 0 .6-.3.1-.5-1.3-.5-1.4 0-1.9.2-1.2.5zM332.8 177.7c.7.3 1.6.2 1.9-.1.4-.3-.2-.6-1.3-.5-1.1 0-1.4.3-.6.6zM294.8 179.7c1.2.2 3.2.2 4.5 0 1.2-.2.2-.4-2.3-.4s-3.5.2-2.2.4zM382.7 180.5c1.1.8 4.9 4.5 8.2 8.2 3.4 3.7 5.9 5.8 5.5 4.8-.6-1.5-.4-1.7 1.4-1.3 4.3 1.2-1.3-4.3-10.2-9.9-5.1-3.2-9-4.7-4.9-1.8zM304.8 180.7c.7.3 1.6.2 1.9-.1.4-.3-.2-.6-1.3-.5-1.1 0-1.4.3-.6.6zM255.4 201c-3.9 1.6-3.6 2.8.5 2.3 2.5-.4 6 .2 10 1.6 7.6 2.6 9.9 2.8 8 .5-3.6-4.3-13.1-6.6-18.5-4.4zM290 237.1c0 .3 1.9 4.4 4.3 9.2 3.4 6.9 4.5 8.4 5.7 7.7 1.3-.8 1.2-1.5-.8-5.2-2.1-4.1-9.1-12.9-9.2-11.7zM307 242.2c-.1 1.9 6.6 13.8 7.7 13.8.7 0 1.3-.2 1.3-.5 0-2.2-8.9-15.3-9-13.3zM100 287.4c0 .8 7.1 4.8 7.6 4.3.9-.8-3.9-4.7-5.8-4.7-1 0-1.8.2-1.8.4zM120 309.8c0 1.7 8 11.1 10.1 11.7 2.3.8 3.4.1 2.5-1.3-1.2-2-12.6-11.4-12.6-10.4zM187 351.1c4.3 1.1 13.1.9 12.4-.3-.3-.4-4-.8-8.2-.7-6.5.1-7.2.2-4.2 1zM188 368.5c-6.3 1.2-6.4 1.3-2 1.3 2.5.1 7.4-.5 11-1.2 6.3-1.3 6.3-1.4 2-1.4-2.5 0-7.4.6-11 1.3zM169.5 378.1c-1.3.6-.4.7 3 .3 2.8-.4 5.2-.8 5.4-1 .9-.8-6.5-.2-8.4.7zM621 373.7c13.1 12.4 24.7 26.5 32.1 39.1 5.9 9.9 11.5 22.4 12.5 27.9 1.3 6.7 2.4.3 1.3-7.4-3.9-28.3-23.3-53.8-51.6-68.2-2.3-1.1-4.5-2.1-5-2.1-.4 0 4.4 4.8 10.7 10.7zM540 370.7c-8 .6-7.7 1.4 1.3 4.4 19.1 6.3 33.4 16.3 39.4 27.6 1.7 3.2 4.5 11.2 6.2 17.8 1.7 6.6 3.4 13 3.7 14.3.5 1.6-1.1.5-5.2-3.9-14.1-14.8-35-25.3-52.9-26.5l-7-.5 10 5.3c5.5 2.9 12.6 6.9 15.7 8.8 5.6 3.4 5.7 3.5 6.3 9 4.6 41.6 25.9 75.6 50.3 80.3 2.1.4 5.1 2.6 9 6.5 9.1 9.3 18.4 12.6 30.6 11 7.2-1 14.9-4.4 20-8.8 4.9-4.3 9.6-12.6 9.6-16.9v-3.4l-3.2 4.4c-12.3 17-28.1 19.4-42.5 6.3-9.3-8.4-14.4-21-19.2-47.2-5.4-29.3-12.6-50.6-21.5-64.1-12-17.9-29-26.2-50.6-24.4zm47.4 75l6.7 8.2-3.4 1.4c-6.8 2.9-10.1 11.2-7.2 18.2 2.2 5.5 5.7 7.8 12.7 8.3 4.8.4 5.8.8 5.8 2.3 0 1 1.1 4.8 2.4 8.4 1.3 3.6 2.2 6.5 1.9 6.5-.2 0-2-.9-4.1-1.9-12.2-6.3-23.7-23.7-30.5-46.1-3.2-10.5-6.7-24.8-6.7-27.5 0-2.4 11.8 9.3 22.4 22.2z"/><path d="M548.1 432.5c-5.1 33.8 10.5 65.6 38.6 78.7 6.9 3.3 21.4 5.4 19.9 2.9-.4-.6-1.5-1.1-2.5-1.1-3.8 0-18.3-8.3-24.2-13.8-16.7-15.4-24-32.8-29.7-70.2l-.8-5.5-1.3 9zM696 495.7c0 4.4-4.9 13-9.6 16.9-5 4-15.2 9-23.9 11.6l-6 1.8 9-.5c16-.9 30.6-6.3 34.6-12.9 2.4-4 2.4-9.7-.1-14.6-2.6-5-4-5.9-4-2.3zM713 531.7c0 2.5 29.3 89 36.1 106.5 3.7 9.7 4.1 7.7 1.8-9.7-2.8-21.8-13.7-53-28.1-80.5-7.5-14.4-9.8-18.2-9.8-16.3zM737.7 661.4c-6.1 1.7-11.2 6.5-13.6 13-1.8 5-3.5 13.6-2.7 13.6.2 0 1.3-1.5 2.4-3.4 4.4-7.5 17.5-11.8 29.6-9.8 10 1.6 17.7 5.5 24.1 12.3 19.6 20.5 19.1 60-1 72.4-4.2 2.6-5.8 3-11.9 3-5.4 0-8.2-.6-11.5-2.3-5.6-2.8-6-2.8-3.2.2 3.3 3.5 13 7.5 19.8 8.2 9.5 1 16.3-1.5 23.2-8.4 10.9-11 14.9-25.4 11.8-41.6-2-9.8-6.5-21-11.3-27.6-9.9-13.7-28.6-26.4-43.3-29.6-7.7-1.6-6.4-1.6-12.4 0z"/><path d="M738.5 683.8c-6.7 3.2-8 6.1-7.9 17.7.1 8.3.6 11.3 2.9 17.5 5.4 14.7 9.9 20.2 19.2 23.6 11.4 4 21.3-.9 24.7-12.4 1.5-5.2 1.1-6.8-1.1-3.4-1.2 2-10 8.2-11.5 8.2-.5 0-.1-1.4.8-3.2 2.7-5.2 1.5-15.1-2.9-24-2-4-4.2-8-4.9-8.9-2.2-2.6-6.5-5-11.5-6.4l-4.8-1.3 3.7-1.6c2.1-.9 5-1.6 6.6-1.6 4.1 0 11 2.6 14.9 5.6 1.9 1.4 3.6 2.4 3.9 2.1.8-.8-9.3-9.3-13.3-11.3-5.6-2.6-13.9-2.9-18.8-.6zM647 692.4c-8.4 2-10.7 3.2-16.4 8.6-6.5 6.2-11.1 15.5-12.7 26.2-1.6 9.7-.3 13.7 1.7 5.8 4.8-18.5 17.6-30.2 36-33 14.3-2.2 28.5 2.5 39.8 13.2 3.3 3.2 6.2 5.8 6.4 5.8.9 0-3.6-7-7.1-10.8-11.7-12.7-32.2-19.5-47.7-15.8zM836.1 710.8c-1.8 3.5-2.2 8.8-1.1 17.7.6 4.9 1.5 14.7 2.1 21.7 1.2 15.4 2.7 21.3 5.4 21.3 2.9 0 4.8-4.9 5.2-13.5l.3-7.5-1.6 4.2c-1.8 5-3 5.4-4.5 1.6-.8-2.1-.6-3.6.7-6.6 2.7-5.9 2.3-15.2-1-22.2-4.2-9.2-2.9-13.9 2.1-7.8l2.2 2.8.1-2.6c0-1.4-.5-4-1.1-5.8-1.7-4.9-6.9-6.8-8.8-3.3z"/></svg>